<svg width="362" height="59" viewBox="0 0 362 59" fill="none" xmlns="http://www.w3.org/2000/svg">
<g clip-path="url(#clip0_378_15)">
<path d="M2.5 2.5H152.5V56.5H2.5V2.5Z" fill="black" stroke="black" stroke-width="5"/>
<path d="M18.7344 47H10.1094L21.6406 13.0625H32.2344L43.7188 47H35.1406L32.8438 39.7344H21.0312L18.7344 47ZM22.9531 33.6406H30.9219L27.0781 21.4531H26.7969L22.9531 33.6406ZM67.9062 13.0625H75.9219V34.9531C75.9219 42.5469 70.1562 47.4688 61.625 47.4688C53.0469 47.4688 47.3281 42.5469 47.3281 34.9531V13.0625H55.2969V34.2969C55.2969 37.9062 57.875 40.4844 61.625 40.4844C65.375 40.4844 67.9062 37.9062 67.9062 34.2969V13.0625ZM79.9062 19.5781V13.0625H108.453V19.5781H98.1406V47H90.2188V19.5781H79.9062ZM142.719 30.0312C142.719 41.2344 135.688 47.4688 126.594 47.4688C117.453 47.4688 110.469 41.1875 110.469 30.0312C110.469 18.8281 117.453 12.5938 126.594 12.5938C135.688 12.5938 142.719 18.8281 142.719 30.0312ZM134.562 30.0312C134.562 23.2812 131.562 19.625 126.594 19.625C121.625 19.625 118.625 23.2812 118.625 30.0312C118.625 36.7812 121.625 40.4375 126.594 40.4375C131.562 40.4375 134.562 36.7812 134.562 30.0312Z" fill="#00FF66"/>
<path d="M174.102 47H161.68V13.0625H174.102C184.461 13.0625 190.836 19.4375 190.836 30.0312C190.836 40.625 184.461 47 174.102 47ZM169.648 40.1562H173.82C179.633 40.1562 182.82 37.3906 182.82 30.0312C182.82 22.6719 179.633 19.8594 173.727 19.8594H169.648V40.1562ZM195.57 47V13.0625H219.055V19.5781H203.539V26.75H217.836V33.2656H203.539V40.4844H219.102V47H195.57ZM231.523 13.0625L239.258 38.0938H239.539L247.273 13.0625H256.18L244.695 47H234.102L222.57 13.0625H231.523ZM259.695 47.4688C257.352 47.4688 255.43 45.5938 255.477 43.2031C255.43 40.9062 257.352 39.0312 259.695 39.0312C261.945 39.0312 263.914 40.9062 263.961 43.2031C263.914 45.5938 261.945 47.4688 259.695 47.4688ZM269.305 47V13.0625H277.273V40.4844H291.523V47H269.305ZM326.164 30.0312C326.164 41.2344 319.133 47.4688 310.039 47.4688C300.898 47.4688 293.914 41.1875 293.914 30.0312C293.914 18.8281 300.898 12.5938 310.039 12.5938C319.133 12.5938 326.164 18.8281 326.164 30.0312ZM318.008 30.0312C318.008 23.2812 315.008 19.625 310.039 19.625C305.07 19.625 302.07 23.2812 302.07 30.0312C302.07 36.7812 305.07 40.4375 310.039 40.4375C315.008 40.4375 318.008 36.7812 318.008 30.0312ZM353.211 24.125C352.414 21.2656 350.117 19.625 346.789 19.625C341.82 19.625 338.633 23.375 338.633 29.9844C338.633 36.6406 341.633 40.4375 346.789 40.4375C351.312 40.4375 353.867 38.0703 353.961 34.3906H347.117V28.5312H361.648V32.9844C361.648 42.0312 355.414 47.4688 346.742 47.4688C337.039 47.4688 330.477 40.8125 330.477 30.0781C330.477 18.9688 337.602 12.5938 346.602 12.5938C354.43 12.5938 360.477 17.375 361.32 24.125H353.211Z" fill="black"/>
</g>
<defs>
<clipPath id="clip0_378_15">
<rect width="362" height="59" fill="white"/>
</clipPath>
</defs>
</svg>
