<svg width="295" height="61" viewBox="0 0 295 61" fill="none" xmlns="http://www.w3.org/2000/svg">
<path d="M188.154 9.9158H196.39V42.8585H213.493V49.6667H188.154V9.9158Z" fill="white"/>
<path d="M253.601 29.7912C253.601 34.0006 252.795 37.6517 251.185 40.7447C249.593 43.8193 247.387 46.1711 244.569 47.7999C241.769 49.4104 238.593 50.2157 235.043 50.2157C231.492 50.2157 228.308 49.4104 225.489 47.7999C222.689 46.1711 220.484 43.8102 218.873 40.7172C217.281 37.6243 216.485 33.9823 216.485 29.7912C216.485 25.5453 217.281 21.885 218.873 18.8103C220.484 15.7357 222.689 13.3931 225.489 11.7826C228.308 10.172 231.492 9.36675 235.043 9.36675C238.593 9.36675 241.769 10.172 244.569 11.7826C247.387 13.3931 249.593 15.7357 251.185 18.8103C252.795 21.885 253.601 25.5453 253.601 29.7912ZM245.255 29.7912C245.255 26.9911 244.834 24.6119 243.992 22.6536C243.169 20.6954 241.988 19.213 240.451 18.2064C238.932 17.1815 237.129 16.6691 235.043 16.6691C232.975 16.6691 231.172 17.1815 229.635 18.2064C228.116 19.213 226.935 20.6954 226.093 22.6536C225.252 24.6119 224.831 26.9911 224.831 29.7912C224.831 32.5914 225.252 34.9706 226.093 36.9288C226.935 38.8871 228.116 40.3787 229.635 41.4035C231.172 42.4101 232.975 42.9134 235.043 42.9134C237.129 42.9134 238.932 42.4101 240.451 41.4035C241.988 40.3787 243.169 38.8871 243.992 36.9288C244.834 34.9706 245.255 32.5914 245.255 29.7912Z" fill="white"/>
<path d="M285.939 22.736C285.592 21.4732 285.024 20.3934 284.237 19.4966C283.45 18.5816 282.49 17.8861 281.355 17.4103C280.238 16.9161 278.948 16.6691 277.484 16.6691C275.434 16.6691 273.632 17.1815 272.076 18.2064C270.539 19.2313 269.331 20.732 268.452 22.7086C267.592 24.6668 267.162 27.0186 267.162 29.7638C267.162 32.5273 267.583 34.8974 268.425 36.8739C269.285 38.8322 270.493 40.3329 272.048 41.3761C273.622 42.401 275.462 42.9134 277.566 42.9134C279.47 42.9134 281.108 42.5657 282.48 41.8702C283.871 41.1748 284.924 40.1956 285.637 38.9328C286.369 37.6517 286.735 36.1602 286.735 34.4581L288.438 34.7052H278.115V28.4186H294.697V33.4149C294.697 36.8373 293.965 39.8205 292.5 42.3644C291.036 44.89 289.005 46.8299 286.406 48.1842C283.826 49.5386 280.87 50.2157 277.539 50.2157C273.842 50.2157 270.575 49.3921 267.738 47.745C264.92 46.0796 262.724 43.7095 261.15 40.6349C259.594 37.5602 258.817 33.9548 258.817 29.8187C258.817 25.6276 259.622 21.9948 261.232 18.9201C262.861 15.8272 265.076 13.4663 267.876 11.8375C270.676 10.1903 273.833 9.36675 277.347 9.36675C280.312 9.36675 283.02 9.9341 285.473 11.0688C287.925 12.2035 289.92 13.7774 291.457 15.7906C293.013 17.8037 293.974 20.1189 294.34 22.736H285.939Z" fill="white"/>
<path d="M0 0H177.444V61H0V0Z" fill="black"/>
<path d="M10.9308 49.6667L24.6569 9.9158H35.2535L49.0071 49.6667H40.14L30.1199 18.8927H29.7905L19.7429 49.6667H10.9308ZM40.5243 34.0463V40.4976H19.3037V34.0463H40.5243Z" fill="#00FF66"/>
<path d="M86.3696 9.9158V35.7484C86.3696 38.6034 85.6833 41.1199 84.3107 43.2977C82.9563 45.4756 81.0347 47.1777 78.5457 48.4039C76.0567 49.6118 73.1833 50.2157 69.9257 50.2157C66.6497 50.2157 63.7764 49.6118 61.3057 48.4039C58.835 47.1777 56.9133 45.4756 55.5407 43.2977C54.1864 41.1199 53.5092 38.6034 53.5092 35.7484V9.9158H61.7449V35.0621C61.7449 36.5628 62.0835 37.9171 62.7606 39.125C63.4378 40.3146 64.3986 41.2571 65.6431 41.9526C66.8876 42.6297 68.3151 42.9683 69.9257 42.9683C71.5545 42.9683 72.9912 42.6297 74.2357 41.9526C75.4802 41.2571 76.4319 40.3146 77.0907 39.125C77.7679 37.9171 78.1064 36.5628 78.1064 35.0621V9.9158H86.3696Z" fill="#00FF66"/>
<path d="M91.5032 9.9158H124.062V16.724H111.873V49.6667H103.719V16.724H91.5032V9.9158Z" fill="#00FF66"/>
<path d="M163.812 29.7912C163.812 34.0006 163.007 37.6517 161.397 40.7447C159.804 43.8193 157.599 46.1711 154.781 47.7999C151.98 49.4104 148.805 50.2157 145.255 50.2157C141.704 50.2157 138.52 49.4104 135.701 47.7999C132.901 46.1711 130.696 43.8102 129.085 40.7172C127.493 37.6243 126.697 33.9823 126.697 29.7912C126.697 25.5453 127.493 21.885 129.085 18.8103C130.696 15.7357 132.901 13.3931 135.701 11.7826C138.52 10.172 141.704 9.36675 145.255 9.36675C148.805 9.36675 151.98 10.172 154.781 11.7826C157.599 13.3931 159.804 15.7357 161.397 18.8103C163.007 21.885 163.812 25.5453 163.812 29.7912ZM155.467 29.7912C155.467 26.9911 155.046 24.6119 154.204 22.6536C153.381 20.6954 152.2 19.213 150.663 18.2064C149.144 17.1815 147.341 16.6691 145.255 16.6691C143.187 16.6691 141.384 17.1815 139.847 18.2064C138.328 19.213 137.147 20.6954 136.305 22.6536C135.463 24.6119 135.042 26.9911 135.042 29.7912C135.042 32.5914 135.463 34.9706 136.305 36.9288C137.147 38.8871 138.328 40.3787 139.847 41.4035C141.384 42.4101 143.187 42.9134 145.255 42.9134C147.341 42.9134 149.144 42.4101 150.663 41.4035C152.2 40.3787 153.381 38.8871 154.204 36.9288C155.046 34.9706 155.467 32.5914 155.467 29.7912Z" fill="#00FF66"/>
<rect x="2.5" y="2.5" width="172" height="56" stroke="white" stroke-width="5"/>
</svg>
