<svg width="298" height="69" viewBox="0 0 298 69" fill="none" xmlns="http://www.w3.org/2000/svg">
<path d="M191.154 13.9158H199.39V46.8585H216.493V53.6667H191.154V13.9158Z" fill="black"/>
<path d="M256.601 33.7912C256.601 38.0006 255.795 41.6517 254.185 44.7447C252.593 47.8193 250.387 50.1711 247.569 51.7999C244.769 53.4104 241.593 54.2157 238.043 54.2157C234.492 54.2157 231.308 53.4104 228.489 51.7999C225.689 50.1711 223.484 47.8102 221.873 44.7172C220.281 41.6243 219.485 37.9823 219.485 33.7912C219.485 29.5453 220.281 25.885 221.873 22.8103C223.484 19.7357 225.689 17.3931 228.489 15.7826C231.308 14.172 234.492 13.3668 238.043 13.3668C241.593 13.3668 244.769 14.172 247.569 15.7826C250.387 17.3931 252.593 19.7357 254.185 22.8103C255.795 25.885 256.601 29.5453 256.601 33.7912ZM248.255 33.7912C248.255 30.9911 247.834 28.6119 246.992 26.6536C246.169 24.6954 244.988 23.213 243.451 22.2064C241.932 21.1815 240.129 20.6691 238.043 20.6691C235.975 20.6691 234.172 21.1815 232.635 22.2064C231.116 23.213 229.935 24.6954 229.093 26.6536C228.252 28.6119 227.831 30.9911 227.831 33.7912C227.831 36.5914 228.252 38.9706 229.093 40.9288C229.935 42.8871 231.116 44.3787 232.635 45.4035C234.172 46.4101 235.975 46.9134 238.043 46.9134C240.129 46.9134 241.932 46.4101 243.451 45.4035C244.988 44.3787 246.169 42.8871 246.992 40.9288C247.834 38.9706 248.255 36.5914 248.255 33.7912Z" fill="black"/>
<path d="M288.939 26.736C288.592 25.4732 288.024 24.3934 287.237 23.4966C286.45 22.5816 285.49 21.8861 284.355 21.4103C283.238 20.9161 281.948 20.6691 280.484 20.6691C278.434 20.6691 276.632 21.1815 275.076 22.2064C273.539 23.2313 272.331 24.732 271.452 26.7086C270.592 28.6668 270.162 31.0186 270.162 33.7638C270.162 36.5273 270.583 38.8974 271.425 40.8739C272.285 42.8322 273.493 44.3329 275.048 45.3761C276.622 46.401 278.462 46.9134 280.566 46.9134C282.47 46.9134 284.108 46.5657 285.48 45.8702C286.871 45.1748 287.924 44.1956 288.637 42.9328C289.369 41.6517 289.735 40.1602 289.735 38.4581L291.438 38.7052H281.115V32.4186H297.697V37.4149C297.697 40.8373 296.965 43.8205 295.5 46.3644C294.036 48.89 292.005 50.8299 289.406 52.1842C286.826 53.5386 283.87 54.2157 280.539 54.2157C276.842 54.2157 273.575 53.3921 270.738 51.745C267.92 50.0796 265.724 47.7095 264.15 44.6349C262.594 41.5602 261.817 37.9548 261.817 33.8187C261.817 29.6276 262.622 25.9948 264.232 22.9201C265.861 19.8272 268.076 17.4663 270.876 15.8375C273.676 14.1903 276.833 13.3668 280.347 13.3668C283.312 13.3668 286.02 13.9341 288.473 15.0688C290.925 16.2035 292.92 17.7774 294.457 19.7906C296.013 21.8037 296.974 24.1189 297.34 26.736H288.939Z" fill="black"/>
<path d="M0 0H181.444V69H0V0Z" fill="black"/>
<path d="M13.9308 53.6667L27.6569 13.9158H38.2535L52.0071 53.6667H43.14L33.1199 22.8927H32.7905L22.7429 53.6667H13.9308ZM43.5243 38.0463V44.4976H22.3037V38.0463H43.5243Z" fill="#00FF66"/>
<path d="M89.3696 13.9158V39.7484C89.3696 42.6034 88.6833 45.1199 87.3107 47.2977C85.9563 49.4756 84.0347 51.1777 81.5457 52.4039C79.0567 53.6118 76.1833 54.2157 72.9257 54.2157C69.6497 54.2157 66.7764 53.6118 64.3057 52.4039C61.835 51.1777 59.9133 49.4756 58.5407 47.2977C57.1864 45.1199 56.5092 42.6034 56.5092 39.7484V13.9158H64.7449V39.0621C64.7449 40.5628 65.0835 41.9171 65.7606 43.125C66.4378 44.3146 67.3986 45.2571 68.6431 45.9526C69.8876 46.6297 71.3151 46.9683 72.9257 46.9683C74.5545 46.9683 75.9912 46.6297 77.2357 45.9526C78.4802 45.2571 79.4319 44.3146 80.0907 43.125C80.7679 41.9171 81.1064 40.5628 81.1064 39.0621V13.9158H89.3696Z" fill="#00FF66"/>
<path d="M94.5032 13.9158H127.062V20.724H114.873V53.6667H106.719V20.724H94.5032V13.9158Z" fill="#00FF66"/>
<path d="M166.812 33.7912C166.812 38.0006 166.007 41.6517 164.397 44.7447C162.804 47.8193 160.599 50.1711 157.781 51.7999C154.98 53.4104 151.805 54.2157 148.255 54.2157C144.704 54.2157 141.52 53.4104 138.701 51.7999C135.901 50.1711 133.696 47.8102 132.085 44.7172C130.493 41.6243 129.697 37.9823 129.697 33.7912C129.697 29.5453 130.493 25.885 132.085 22.8103C133.696 19.7357 135.901 17.3931 138.701 15.7826C141.52 14.172 144.704 13.3668 148.255 13.3668C151.805 13.3668 154.98 14.172 157.781 15.7826C160.599 17.3931 162.804 19.7357 164.397 22.8103C166.007 25.885 166.812 29.5453 166.812 33.7912ZM158.467 33.7912C158.467 30.9911 158.046 28.6119 157.204 26.6536C156.381 24.6954 155.2 23.213 153.663 22.2064C152.144 21.1815 150.341 20.6691 148.255 20.6691C146.187 20.6691 144.384 21.1815 142.847 22.2064C141.328 23.213 140.147 24.6954 139.305 26.6536C138.463 28.6119 138.042 30.9911 138.042 33.7912C138.042 36.5914 138.463 38.9706 139.305 40.9288C140.147 42.8871 141.328 44.3787 142.847 45.4035C144.384 46.4101 146.187 46.9134 148.255 46.9134C150.341 46.9134 152.144 46.4101 153.663 45.4035C155.2 44.3787 156.381 42.8871 157.204 40.9288C158.046 38.9706 158.467 36.5914 158.467 33.7912Z" fill="#00FF66"/>
<rect x="5.5" y="6.5" width="172" height="56" stroke="black" stroke-width="5"/>
</svg>
